<?xml version="1.0" standalone="no"?>
<!DOCTYPE svg PUBLIC "-//W3C//DTD SVG 20010904//EN"
 "http://www.w3.org/TR/2001/REC-SVG-20010904/DTD/svg10.dtd">
<svg version="1.0" xmlns="http://www.w3.org/2000/svg"
 width="524.000000pt" height="197.000000pt" viewBox="0 0 524.000000 197.000000"
 preserveAspectRatio="xMidYMid meet">

<g transform="translate(0.000000,197.000000) scale(0.100000,-0.100000)"
fill="#000000" stroke="none">
<path d="M0 985 l0 -985 565 0 565 0 0 80 0 80 -60 0 -60 0 0 125 0 125 59 0
c33 0 62 4 66 10 9 14 35 0 35 -19 0 -9 7 -24 14 -34 12 -16 14 -16 20 -2 3 9
2 13 -4 10 -6 -3 -10 -4 -10 -1 0 11 73 36 105 36 46 0 65 -9 65 -30 0 -16 -4
-17 -32 -9 -34 9 -68 3 -80 -14 -12 -20 12 -46 52 -57 49 -13 70 -34 70 -68 0
-49 -33 -72 -104 -72 l-46 0 0 -80 0 -80 985 0 985 0 0 64 c0 56 3 66 24 79
27 18 36 13 36 -19 0 -12 4 -24 9 -26 6 -2 11 -24 13 -50 l3 -48 983 0 982 0
0 985 0 985 -2620 0 -2620 0 0 -985z m3920 850 c0 -13 -48 -15 -347 -17 l-348
-3 -3 -307 -2 -308 230 0 c223 0 230 -1 230 -20 0 -19 -7 -20 -230 -20 l-230
0 0 -301 c0 -236 -3 -300 -12 -297 -10 4 -14 144 -16 646 l-2 642 365 0 c316
0 365 -2 365 -15z m-2262 -637 c-3 -564 -5 -643 -18 -643 -13 0 -15 79 -18
643 -2 638 -2 642 18 642 20 0 20 -4 18 -642z m402 17 l0 -625 315 0 c273 0
315 -2 315 -15 0 -13 -43 -15 -330 -15 l-330 0 0 640 c0 562 2 640 15 640 13
0 15 -76 15 -625z m788 -12 c-2 -417 -6 -638 -13 -638 -7 0 -11 221 -13 638
-2 563 0 637 13 637 13 0 15 -74 13 -637z m-1104 578 c3 -4 33 -25 67 -45 48
-28 71 -36 110 -36 31 0 48 -4 44 -10 -3 -5 -29 -10 -56 -10 -41 0 -61 -7
-113 -40 -66 -42 -76 -46 -76 -31 0 5 25 24 55 41 30 17 57 35 60 40 3 4 -24
25 -59 46 -36 21 -63 41 -60 46 7 11 21 10 28 -1z m1385 -28 c-13 -15 -43 -48
-66 -73 l-43 -45 -62 62 c-34 34 -60 65 -56 68 3 3 30 -20 61 -51 l55 -58 57
62 c31 34 62 62 68 62 6 0 0 -12 -14 -27z m11 -143 c0 -6 -47 -10 -120 -10
-73 0 -120 4 -120 10 0 6 47 10 120 10 73 0 120 -4 120 -10z m4 -85 c-3 -8
-21 -19 -40 -25 l-34 -12 0 -64 c0 -64 0 -64 35 -81 19 -9 35 -22 35 -29 0
-13 -26 -4 -158 57 -34 16 -67 29 -72 29 -8 0 -16 40 -7 40 1 0 54 22 117 50
128 55 132 56 124 35z m-1174 -3 c0 -8 -31 -32 -165 -125 l-60 -42 113 -3
c152 -4 137 -22 -18 -22 -116 0 -144 7 -118 30 26 23 193 140 201 140 4 0 7 5
7 11 0 6 -37 9 -105 8 -58 -1 -109 1 -112 5 -4 3 53 6 125 6 73 0 132 -4 132
-8z m-3 -276 c9 -9 -12 -25 -124 -102 -46 -31 -85 -60 -89 -65 -3 -5 42 -9
106 -9 72 0 109 -4 105 -10 -8 -13 -242 -13 -250 0 -5 9 119 108 186 147 16 9
29 20 29 23 0 3 -43 3 -95 2 -102 -4 -141 2 -115 18 17 10 237 7 247 -4z
m1173 -76 l0 -90 -120 0 -120 0 2 88 2 87 3 -72 4 -73 49 0 50 0 2 63 1 62 6
-60 6 -60 53 -3 52 -3 0 75 c0 42 2 76 5 76 3 0 5 -40 5 -90z m-2190 0 c15
-16 37 -30 49 -30 17 0 21 -6 21 -34 0 -18 6 -39 14 -45 7 -6 60 -14 117 -17
95 -5 118 -13 119 -36 0 -11 -33 -15 -57 -7 -11 4 -46 5 -78 2 -49 -5 -56 -8
-53 -27 6 -41 104 -40 223 4 28 10 68 23 89 30 22 7 51 23 65 36 30 27 46 30
54 9 7 -16 -58 -75 -83 -75 -9 0 -25 -7 -37 -15 -12 -9 -40 -22 -62 -30 -21
-7 -64 -25 -94 -40 -54 -27 -54 -27 -71 -95 -9 -37 -16 -91 -16 -119 0 -28 -7
-68 -15 -89 -9 -21 -15 -47 -14 -57 5 -51 -2 -85 -16 -85 -27 0 -40 46 -27 96
7 24 12 98 12 165 l0 120 -56 55 c-54 52 -56 56 -50 94 5 32 3 40 -9 40 -22 0
-49 48 -47 84 2 37 -21 71 -43 63 -9 -4 -15 -1 -15 7 0 37 44 35 80 -4z m2050
-170 c10 -5 21 -21 24 -35 8 -33 19 -32 72 11 26 22 44 31 44 23 0 -8 -22 -32
-50 -54 -37 -30 -49 -47 -50 -67 0 -27 2 -28 50 -28 28 0 50 -4 50 -10 0 -10
-231 -15 -241 -6 -2 2 -3 33 -1 69 5 91 44 128 102 97z m-1220 -150 l50 0 0
57 c0 70 10 65 11 -5 l2 -52 53 0 54 0 0 65 c0 38 4 65 10 65 7 0 10 -27 8
-72 l-3 -73 -125 0 -125 0 2 65 c2 90 6 97 10 18 l4 -68 49 0z m2600 96 c0 -7
-12 -21 -26 -31 -32 -21 -144 -132 -144 -143 0 -5 13 -36 29 -69 27 -56 31
-59 59 -55 38 5 72 -13 72 -39 0 -11 -14 -41 -32 -65 l-31 -44 23 -25 c27 -29
13 -40 -35 -27 -32 9 -35 23 -20 85 7 27 7 27 -44 27 -51 0 -143 -24 -233 -61
-26 -10 -58 -19 -72 -19 -13 0 -31 -6 -38 -13 -7 -8 -35 -17 -61 -20 -42 -6
-48 -5 -45 10 2 10 22 25 47 34 24 9 55 24 69 35 40 31 123 121 137 148 13 24
11 27 -21 55 -19 17 -34 36 -34 43 1 19 21 43 49 58 22 11 27 10 46 -14 25
-31 32 -32 65 -6 14 11 31 20 39 20 18 0 -53 -48 -76 -52 -11 -2 -22 6 -28 20
-11 26 -37 29 -59 6 -18 -17 -21 -44 -7 -44 5 0 12 -9 16 -19 3 -10 14 -21 25
-24 19 -5 19 -5 0 -42 -10 -20 -37 -55 -59 -78 -40 -40 -50 -67 -13 -33 11 9
25 15 33 13 8 -2 11 -2 7 0 -11 6 61 93 76 93 7 0 21 -6 31 -14 17 -12 17 -16
5 -30 -7 -10 -27 -24 -44 -32 -17 -8 -51 -26 -76 -39 -25 -13 -53 -21 -63 -18
-11 3 -29 -4 -44 -19 -13 -12 -41 -28 -60 -33 -20 -6 -38 -16 -41 -24 -3 -10
0 -11 16 -2 10 6 22 7 26 4 3 -3 21 1 38 9 72 35 286 96 351 101 37 3 67 3 67
1 0 -2 -7 -24 -16 -50 -17 -52 -18 -49 16 -58 24 -7 24 -6 6 8 -19 15 -18 17
17 69 20 29 37 59 37 65 0 18 -39 34 -65 28 -24 -6 -55 15 -55 36 0 5 -11 33
-25 60 l-26 51 23 15 c30 21 76 70 90 95 10 20 10 20 -18 0 -16 -12 -38 -30
-48 -42 -11 -12 -24 -21 -29 -21 -12 0 50 58 107 101 42 31 66 37 66 15z
m-2410 -257 l0 -69 -130 0 c-80 0 -130 4 -130 10 0 6 47 10 120 10 l120 0 0
66 c0 41 4 63 10 59 6 -3 10 -37 10 -76z m988 -56 l47 2 6 60 6 60 1 -50 c3
-61 12 -77 43 -74 48 4 90 -1 84 -11 -4 -6 -57 -10 -126 -10 l-119 0 2 83 2
82 3 -72 4 -71 47 1z m1371 -224 c19 -7 31 -18 31 -28 0 -15 -6 -17 -46 -11
-44 7 -74 -5 -74 -30 0 -14 43 -40 66 -40 25 0 64 -43 64 -71 0 -10 -11 -30
-24 -46 -20 -24 -30 -27 -71 -25 -46 2 -75 15 -75 34 0 5 21 6 48 3 33 -5 53
-2 66 8 29 21 14 44 -49 71 -51 23 -55 27 -55 59 0 42 17 65 55 76 17 5 30 10
31 10 1 1 15 -4 33 -10z m-2741 -21 c3 -15 -4 -18 -37 -18 l-41 0 0 -105 c0
-98 -1 -105 -20 -105 -19 0 -20 7 -20 105 l0 105 -40 0 c-34 0 -40 3 -40 20 0
20 5 21 97 18 84 -3 98 -6 101 -20z m62 -66 c0 -102 14 -132 60 -132 46 0 60
30 60 132 0 81 2 88 20 88 18 0 20 -7 20 -85 0 -138 -23 -171 -115 -163 -56 5
-75 36 -82 136 -6 88 -2 112 22 112 12 0 15 -16 15 -88z m372 49 c50 -56 49
-127 -1 -175 -24 -23 -41 -29 -95 -33 l-66 -6 0 128 0 128 67 -6 c59 -4 71 -9
95 -36z m118 -86 c0 -118 -1 -125 -20 -125 -19 0 -20 7 -20 118 0 120 2 132
27 132 10 0 13 -28 13 -125z m236 89 c30 -31 34 -42 34 -91 0 -49 -4 -59 -34
-89 -29 -29 -41 -34 -79 -34 -56 0 -93 27 -107 81 -26 94 24 168 114 169 32 0
45 -6 72 -36z m295 13 c45 -30 61 -63 56 -116 -4 -32 -13 -52 -36 -74 -26 -27
-39 -32 -96 -35 l-65 -4 0 126 0 126 54 0 c39 0 62 -6 87 -23z m249 3 c0 -18
-7 -20 -55 -20 l-55 0 0 -35 0 -35 50 0 c38 0 50 -4 50 -15 0 -11 -12 -15 -50
-15 l-50 0 0 -41 0 -40 57 3 c48 3 58 0 61 -14 3 -16 -6 -18 -77 -18 l-81 0 0
118 c0 65 3 122 7 125 3 4 37 7 75 7 61 0 68 -2 68 -20z m260 2 c46 -24 73
-75 66 -125 -8 -68 -64 -107 -156 -107 l-50 0 0 125 0 125 53 0 c31 0 66 -7
87 -18z m261 -107 c27 -66 49 -121 49 -123 0 -2 -10 -2 -22 0 -15 2 -25 13
-32 36 -8 30 -11 32 -58 32 -46 0 -50 -2 -60 -30 -9 -26 -34 -50 -52 -50 -11
0 -6 26 13 62 10 21 33 74 51 118 23 56 37 80 48 78 8 -2 35 -53 63 -123z
m168 38 c31 -45 59 -82 64 -83 4 0 7 38 7 85 0 78 2 85 20 85 19 0 20 -7 20
-125 0 -115 -1 -125 -18 -125 -12 0 -40 30 -78 86 l-59 86 -5 -83 c-4 -70 -8
-84 -22 -87 -16 -3 -18 8 -18 123 0 155 8 158 89 38z m331 74 c0 -6 -29 -53
-64 -102 -35 -50 -62 -93 -59 -97 2 -5 31 -8 64 -8 46 0 59 -3 59 -15 0 -12
-17 -15 -90 -15 -73 0 -90 3 -90 15 0 8 29 54 64 102 l65 88 -65 3 c-56 3 -64
5 -64 22 0 18 7 20 90 20 66 0 90 -3 90 -13z m194 -102 c25 -63 46 -120 46
-125 0 -6 -8 -10 -18 -10 -11 0 -23 13 -31 35 -12 33 -15 35 -60 35 -45 0 -48
-2 -60 -35 -8 -24 -18 -35 -33 -35 -15 0 -18 4 -13 17 4 10 22 57 41 106 42
110 51 127 68 127 8 0 33 -47 60 -115z"/>
<path d="M2988 1451 c-32 -14 -58 -28 -58 -31 0 -7 113 -51 117 -46 2 2 3 26
1 53 l-3 49 -57 -25z"/>
<path d="M910 1183 c0 -5 9 -21 19 -36 10 -16 17 -37 14 -47 -7 -26 15 -60 39
-60 19 0 20 -4 15 -43 -5 -36 -2 -50 19 -80 13 -20 37 -43 53 -51 28 -15 28
-18 33 -114 4 -92 0 -155 -16 -227 -5 -20 -2 -36 8 -50 14 -19 15 -16 16 36 0
31 7 73 15 92 8 20 14 55 13 79 -1 24 6 78 16 120 l19 76 76 33 c137 58 239
110 245 126 11 28 -3 27 -33 -1 -16 -16 -57 -36 -97 -48 -38 -11 -73 -24 -79
-28 -19 -14 -137 -31 -168 -24 -36 7 -47 19 -47 50 0 18 8 23 53 29 l52 8 -60
7 c-71 8 -105 24 -105 50 0 32 -11 50 -32 50 -11 0 -26 13 -36 30 -16 28 -32
39 -32 23z"/>
<path d="M1203 1023 c9 -2 23 -2 30 0 6 3 -1 5 -18 5 -16 0 -22 -2 -12 -5z"/>
<path d="M2926 958 c-9 -12 -16 -42 -16 -65 l0 -43 56 0 57 0 -5 50 c-3 27
-11 56 -18 65 -18 22 -56 18 -74 -7z"/>
<path d="M4330 930 c-8 -5 -12 -11 -9 -14 2 -3 11 -1 19 4 8 5 12 11 9 14 -2
3 -11 1 -19 -4z"/>
<path d="M4056 624 c-16 -19 -26 -37 -24 -39 10 -10 88 40 86 55 -5 27 -32 20
-62 -16z"/>
<path d="M1900 279 l0 -91 38 7 c54 10 82 40 82 87 0 52 -35 88 -85 88 l-35 0
0 -91z"/>
<path d="M2262 370 c-44 -18 -57 -109 -21 -154 26 -33 68 -34 104 -3 22 18 27
31 27 71 0 71 -51 110 -110 86z"/>
<path d="M2570 281 l0 -89 38 5 c53 7 82 37 82 85 0 52 -35 88 -85 88 l-35 0
0 -89z"/>
<path d="M3080 286 c0 -47 4 -88 10 -91 17 -10 89 15 100 35 5 10 10 37 10 59
0 54 -26 81 -80 81 l-40 0 0 -84z"/>
<path d="M3362 315 c-18 -38 -15 -45 18 -45 28 0 29 1 18 28 -18 42 -24 45
-36 17z"/>
<path d="M4056 312 c-21 -41 -21 -42 14 -42 35 0 34 -2 16 41 l-14 33 -16 -32z"/>
<path d="M1052 338 c3 -30 6 -33 41 -36 36 -3 37 -3 37 32 0 35 -1 36 -41 36
-39 0 -40 -1 -37 -32z"/>
<path d="M1216 248 c8 -49 17 -58 59 -58 75 0 75 53 0 81 -27 10 -53 19 -58
19 -4 0 -4 -19 -1 -42z"/>
<path d="M1050 236 c0 -38 9 -44 52 -38 24 4 28 9 28 38 0 33 -1 34 -40 34
-39 0 -40 -1 -40 -34z"/>
</g>
</svg>
